<?xml version="1.0" encoding="UTF-8"?>
<!DOCTYPE svg PUBLIC "-//W3C//DTD SVG 1.1//EN" "http://www.w3.org/Graphics/SVG/1.1/DTD/svg11.dtd">
<svg xmlns="http://www.w3.org/2000/svg" version="1.1" width="512px" height="512px" style="shape-rendering:geometricPrecision; text-rendering:geometricPrecision; image-rendering:optimizeQuality; fill-rule:evenodd; clip-rule:evenodd" xmlns:xlink="http://www.w3.org/1999/xlink">
<g><path style="opacity:0.913" fill="#000000" d="M 226.5,14.5 C 259.808,10.5437 287.974,20.5437 311,44.5C 327.181,66.556 333.347,91.2226 329.5,118.5C 330.764,123.697 332.597,128.697 335,133.5C 336.559,128.717 338.393,124.05 340.5,119.5C 334.937,84.5036 345.27,55.3369 371.5,32C 396.164,15.1394 422.997,10.306 452,17.5C 458.36,45.0068 454.027,70.6734 439,94.5C 416.191,122.331 386.858,133.664 351,128.5C 345.475,140.933 342.308,153.933 341.5,167.5C 382.746,172.584 410.58,194.584 425,233.5C 433.421,263.472 428.921,291.305 411.5,317C 427.441,313.517 443.441,310.017 459.5,306.5C 482.447,308.613 494.78,321.113 496.5,344C 495.681,364.984 485.681,379.651 466.5,388C 414.089,407.804 361.755,427.804 309.5,448C 294.63,454.077 279.297,455.744 263.5,453C 237.5,445 211.5,437 185.5,429C 182.5,428.333 179.5,428.333 176.5,429C 165.592,433.453 154.926,438.453 144.5,444C 150.452,453.578 150.952,463.411 146,473.5C 144.167,475.333 142.333,477.167 140.5,479C 128.5,484.333 116.5,489.667 104.5,495C 88.9632,499.648 78.1299,494.481 72,479.5C 53.2754,435.051 34.2754,390.717 15,346.5C 11.8332,331.347 17.6665,321.181 32.5,316C 41.1667,312.333 49.8333,308.667 58.5,305C 70.1625,300.332 79.9958,302.832 88,312.5C 89.8489,316.198 91.6822,319.864 93.5,323.5C 117.833,311.667 142.167,299.833 166.5,288C 196.857,277.305 224.19,282.472 248.5,303.5C 248.833,303.167 249.167,302.833 249.5,302.5C 234.449,266.368 238.615,232.701 262,201.5C 279.57,181.298 301.737,169.964 328.5,167.5C 327.587,153.753 324.087,140.753 318,128.5C 281.766,133.702 252.432,122.035 230,93.5C 215.845,70.2393 211.512,45.2393 217,18.5C 219.888,16.2876 223.055,14.9543 226.5,14.5 Z M 238.5,26.5 C 277.363,26.5627 302.863,44.896 315,81.5C 316.655,87.7559 317.322,94.0892 317,100.5C 305.893,85.7269 292.06,74.2269 275.5,66C 268.167,65.0032 265.334,68.1699 267,75.5C 276.386,80.8877 285.219,87.0544 293.5,94C 300.256,100.752 306.256,108.086 311.5,116C 259.679,117.346 231.679,92.1792 227.5,40.5C 227.786,36.1562 228.12,31.8228 228.5,27.5C 232.042,27.8128 235.375,27.4794 238.5,26.5 Z M 425.5,26.5 C 430.813,27.0978 436.146,27.4312 441.5,27.5C 445.235,57.4855 435.902,82.3188 413.5,102C 396.982,113.805 378.648,118.305 358.5,115.5C 369.227,98.6046 383.56,85.7712 401.5,77C 405.06,71.085 403.56,67.2517 397,65.5C 379.11,73.0511 364.443,84.7178 353,100.5C 353.873,64.5778 371.373,41.0778 405.5,30C 412.234,28.3845 418.901,27.2178 425.5,26.5 Z M 326.5,180.5 C 371.396,179.849 400.563,200.849 414,243.5C 420.18,276.277 410.68,303.444 385.5,325C 368.688,329.578 351.855,334.078 335,338.5C 330.366,331.535 324.2,326.369 316.5,323C 300.949,318.261 285.282,313.927 269.5,310C 249.612,280.274 248.445,249.774 266,218.5C 280.48,196.84 300.647,184.173 326.5,180.5 Z M 185.5,295.5 C 200.049,294.176 213.716,297.01 226.5,304C 232.313,309.075 238.646,313.408 245.5,317C 267.5,323 289.5,329 311.5,335C 325.671,343.184 329.171,354.684 322,369.5C 316.06,378.05 307.893,381.55 297.5,380C 268.388,371.931 239.221,364.097 210,356.5C 204.793,357.226 202.793,360.226 204,365.5C 205.214,367.049 206.714,368.215 208.5,369C 236.122,376.822 263.789,384.489 291.5,392C 315.11,396.286 330.61,387.119 338,364.5C 338.499,359.845 338.666,355.179 338.5,350.5C 377.604,340.807 416.604,330.641 455.5,320C 472.245,319.414 481.578,327.414 483.5,344C 482.865,358.279 476.198,368.613 463.5,375C 405.977,397.063 348.311,418.73 290.5,440C 282.167,442 273.833,442 265.5,440C 241.044,432.737 216.711,425.07 192.5,417C 184.066,414.842 175.733,415.175 167.5,418C 158.133,422.1 148.967,426.6 140,431.5C 125.689,400.074 111.855,368.408 98.5,336.5C 118.136,326.682 137.802,316.849 157.5,307C 166.605,302.27 175.938,298.437 185.5,295.5 Z M 66.5,315.5 C 73.7085,315.704 78.2085,319.371 80,326.5C 98.4719,370.249 117.139,413.915 136,457.5C 137.163,462.345 135.663,466.179 131.5,469C 120.582,473.862 109.582,478.528 98.5,483C 93.1088,484.653 88.9421,483.153 86,478.5C 66.8614,433.418 47.528,388.418 28,343.5C 26.6306,338.563 27.7973,334.396 31.5,331C 43.3929,326.101 55.0596,320.934 66.5,315.5 Z"/></g>
<g><path style="opacity:0.906" fill="#000000" d="M 331.5,199.5 C 334.602,199.154 337.435,199.821 340,201.5C 341.41,207.379 341.91,213.379 341.5,219.5C 345.105,219.799 348.439,220.965 351.5,223C 360.215,229.161 363.382,237.327 361,247.5C 357.057,250.366 353.39,250.032 350,246.5C 349.674,236.841 344.674,231.841 335,231.5C 325.567,231.599 320.9,236.266 321,245.5C 321.465,246.931 322.299,248.097 323.5,249C 334.446,253.806 345.112,259.139 355.5,265C 365.489,277.461 364.489,289.128 352.5,300C 349.285,301.774 345.952,303.274 342.5,304.5C 341.671,309.467 341.171,314.467 341,319.5C 338.411,324.587 334.744,325.587 330,322.5C 328.59,316.621 328.09,310.621 328.5,304.5C 312.871,300.741 306.371,291.074 309,275.5C 312.607,272.731 315.94,273.064 319,276.5C 321.926,290.546 330.093,295.046 343.5,290C 349.586,285.8 350.586,280.8 346.5,275C 335.343,269.589 324.343,263.922 313.5,258C 305.673,248.033 305.506,237.866 313,227.5C 317.291,223.105 322.458,220.438 328.5,219.5C 328.334,213.824 328.501,208.157 329,202.5C 330.045,201.627 330.878,200.627 331.5,199.5 Z"/></g>
</svg>
