<?xml version="1.0" encoding="UTF-8"?>
<!DOCTYPE svg PUBLIC "-//W3C//DTD SVG 1.1//EN" "http://www.w3.org/Graphics/SVG/1.1/DTD/svg11.dtd">
<svg xmlns="http://www.w3.org/2000/svg" version="1.1" width="512px" height="512px" style="shape-rendering:geometricPrecision; text-rendering:geometricPrecision; image-rendering:optimizeQuality; fill-rule:evenodd; clip-rule:evenodd" xmlns:xlink="http://www.w3.org/1999/xlink">
<g><path style="opacity:0.951" fill="#000000" d="M 23.5,29.5 C 178.506,29.0662 333.506,29.5662 488.5,31C 506.515,39.0445 511.015,51.8779 502,69.5C 496.795,76.1863 489.961,79.8529 481.5,80.5C 481.667,168.167 481.5,255.834 481,343.5C 479.992,345.259 478.492,346.426 476.5,347C 465.469,347.463 454.469,348.296 443.5,349.5C 457.858,371.336 461.858,395.003 455.5,420.5C 454.543,428.012 456.376,434.679 461,440.5C 471.03,450.196 480.697,460.196 490,470.5C 489.961,479.358 485.461,483.025 476.5,481.5C 463.567,481.431 450.901,479.598 438.5,476C 417.283,467.102 404.449,451.269 400,428.5C 398.239,413.847 396.572,399.18 395,384.5C 391.49,370.67 384.323,359.17 373.5,350C 334.25,348.839 294.916,348.339 255.5,348.5C 216.833,348.667 178.167,348.833 139.5,349C 127.527,358.432 119.694,370.599 116,385.5C 114.66,401.924 112.66,418.258 110,434.5C 103.5,457 89,471.5 66.5,478C 53.2953,480.682 39.962,481.682 26.5,481C 24.6667,479.167 22.8333,477.333 21,475.5C 20.4484,472.581 21.1151,469.914 23,467.5C 32.3333,458.167 41.6667,448.833 51,439.5C 52.8605,437.112 54.1939,434.446 55,431.5C 54.9493,415.486 54.616,399.486 54,383.5C 55.9961,371.174 60.4961,359.841 67.5,349.5C 56.5308,348.296 45.5308,347.463 34.5,347C 33.0692,346.535 31.9025,345.701 31,344.5C 30.6667,342.167 30.3333,339.833 30,337.5C 29.5,251.834 29.3333,166.167 29.5,80.5C 11.4289,77.3398 3.2622,66.6732 5,48.5C 8.66128,39.6727 14.8279,33.3394 23.5,29.5 Z M 26.5,46.5 C 179.167,46.3333 331.834,46.5 484.5,47C 490.645,51.6938 490.979,56.6938 485.5,62C 332.167,62.6667 178.833,62.6667 25.5,62C 20.01,56.4592 20.3434,51.2925 26.5,46.5 Z M 47.5,80.5 C 186.5,80.5 325.5,80.5 464.5,80.5C 464.5,119.167 464.5,157.833 464.5,196.5C 325.5,196.5 186.5,196.5 47.5,196.5C 47.5,157.833 47.5,119.167 47.5,80.5 Z M 127.5,105.5 C 223.175,105.078 318.842,105.578 414.5,107C 419.09,118.591 427.257,126.424 439,130.5C 439.667,135.5 439.667,140.5 439,145.5C 426.173,149.826 418.006,158.492 414.5,171.5C 308.5,171.5 202.5,171.5 96.5,171.5C 93.4179,159.08 85.7512,150.746 73.5,146.5C 71.745,141.283 71.245,135.95 72,130.5C 84.1769,127.158 92.3436,119.491 96.5,107.5C 106.992,106.833 117.326,106.167 127.5,105.5 Z M 47.5,214.5 C 186.5,214.5 325.5,214.5 464.5,214.5C 464.5,253.167 464.5,291.833 464.5,330.5C 325.5,330.5 186.5,330.5 47.5,330.5C 47.5,291.833 47.5,253.167 47.5,214.5 Z M 99.5,239.5 C 204.501,239.333 309.501,239.5 414.5,240C 418.487,252.487 426.82,260.321 439.5,263.5C 439.5,269.167 439.5,274.833 439.5,280.5C 426.828,283.67 418.495,291.504 414.5,304C 309.167,304.667 203.833,304.667 98.5,304C 94.6874,297.498 90.0208,291.498 84.5,286C 80.6264,283.063 76.2931,281.229 71.5,280.5C 71.334,275.156 71.5006,269.823 72,264.5C 83.601,260.565 91.601,252.899 96,241.5C 97.3024,240.915 98.469,240.249 99.5,239.5 Z M 90.5,348.5 C 98.1739,348.334 105.841,348.5 113.5,349C 107.241,357.272 102.741,366.438 100,376.5C 97.3837,394.456 95.0503,412.456 93,430.5C 87.6133,450.229 74.78,460.729 54.5,462C 57.3497,459.318 60.0164,456.484 62.5,453.5C 61.1851,451.684 59.6851,450.017 58,448.5C 57.1433,445.449 57.81,442.783 60,440.5C 63.1361,443.105 64.9694,446.438 65.5,450.5C 68.0932,447.652 69.9265,444.319 71,440.5C 74.2628,424.328 74.0961,408.162 70.5,392C 71.2628,381.712 74.4295,372.212 80,363.5C 83.7451,358.602 87.2451,353.602 90.5,348.5 Z M 397.5,349.5 C 404.989,348.344 412.655,348.178 420.5,349C 432.014,361.03 438.68,375.364 440.5,392C 438.595,406.782 438.095,421.615 439,436.5C 439.697,440.928 441.363,444.928 444,448.5C 448.283,452.905 452.45,457.405 456.5,462C 434.104,459.941 420.937,447.774 417,425.5C 415.879,408.715 413.879,392.048 411,375.5C 408.301,365.765 403.801,357.098 397.5,349.5 Z"/></g>
<g><path style="opacity:0.967" fill="#000000" d="M 87.5,88.5 C 201.167,88.3333 314.834,88.5 428.5,89C 429.211,90.2547 430.044,91.4214 431,92.5C 431.87,97.8868 432.87,103.22 434,108.5C 435.8,110.317 437.966,111.484 440.5,112C 444.584,112.231 448.584,112.898 452.5,114C 454.333,114.5 455.5,115.667 456,117.5C 456.772,121.298 457.272,125.131 457.5,129C 456.814,139.156 456.314,149.323 456,159.5C 455.5,161.333 454.333,162.5 452.5,163C 448.227,164.03 443.894,164.697 439.5,165C 437.152,165.346 435.319,166.513 434,168.5C 432.676,173.741 431.676,179.075 431,184.5C 430.535,185.931 429.701,187.097 428.5,188C 313.167,188.667 197.833,188.667 82.5,188C 81.7894,186.745 80.956,185.579 80,184.5C 79.9158,178.971 78.9158,173.638 77,168.5C 75.4207,166.959 73.5873,165.792 71.5,165C 67.106,164.697 62.7727,164.03 58.5,163C 57.3333,161.833 56.1667,160.667 55,159.5C 54.3333,145.833 54.3333,132.167 55,118.5C 55.2735,116.671 56.1068,115.171 57.5,114C 62.0826,112.855 66.7492,112.189 71.5,112C 75.7703,110.73 78.2703,107.896 79,103.5C 79.1298,99.0492 79.7964,94.7159 81,90.5C 83.277,89.8828 85.4437,89.2161 87.5,88.5 Z M 127.5,105.5 C 117.326,106.167 106.992,106.833 96.5,107.5C 92.3436,119.491 84.1769,127.158 72,130.5C 71.245,135.95 71.745,141.283 73.5,146.5C 85.7512,150.746 93.4179,159.08 96.5,171.5C 202.5,171.5 308.5,171.5 414.5,171.5C 418.006,158.492 426.173,149.826 439,145.5C 439.667,140.5 439.667,135.5 439,130.5C 427.257,126.424 419.09,118.591 414.5,107C 318.842,105.578 223.175,105.078 127.5,105.5 Z"/></g>
<g><path style="opacity:0.935" fill="#000000" d="M 210.5,121.5 C 213.649,121.211 216.649,121.711 219.5,123C 221.681,126.546 223.181,130.38 224,134.5C 224.833,135.333 225.667,136.167 226.5,137C 245.833,139 265.167,139 284.5,137C 286.049,135.786 287.215,134.286 288,132.5C 288.941,123.123 293.774,119.956 302.5,123C 304.662,124.645 305.995,126.812 306.5,129.5C 304.824,142.346 297.824,150.846 285.5,155C 266.167,155.667 246.833,155.667 227.5,155C 212.253,151.438 205.086,141.938 206,126.5C 207.025,124.313 208.525,122.646 210.5,121.5 Z"/></g>
<g><path style="opacity:0.932" fill="#000000" d="M 84.5,221.5 C 198.834,221.333 313.167,221.5 427.5,222C 428.667,223.167 429.833,224.333 431,225.5C 431.775,231.286 432.941,236.953 434.5,242.5C 435.665,243.584 436.998,244.417 438.5,245C 442.795,245.912 447.128,246.579 451.5,247C 453.624,248.122 455.457,249.622 457,251.5C 457.667,265.167 457.667,278.833 457,292.5C 455.5,294 454,295.5 452.5,297C 436.658,295.508 429.492,302.675 431,318.5C 429.833,319.667 428.667,320.833 427.5,322C 312.833,322.667 198.167,322.667 83.5,322C 82.3333,320.833 81.1667,319.667 80,318.5C 79.9541,312.638 78.9541,306.971 77,301.5C 71.5373,298.779 65.7039,297.279 59.5,297C 57.714,296.215 56.214,295.049 55,293.5C 54.3333,279.167 54.3333,264.833 55,250.5C 56.214,248.951 57.714,247.785 59.5,247C 65.4618,246.809 71.1285,245.475 76.5,243C 78.8746,237.807 80.0413,232.307 80,226.5C 81.025,224.313 82.525,222.646 84.5,221.5 Z M 99.5,239.5 C 98.469,240.249 97.3024,240.915 96,241.5C 91.601,252.899 83.601,260.565 72,264.5C 71.5006,269.823 71.334,275.156 71.5,280.5C 76.2931,281.229 80.6264,283.063 84.5,286C 90.0208,291.498 94.6874,297.498 98.5,304C 203.833,304.667 309.167,304.667 414.5,304C 418.495,291.504 426.828,283.67 439.5,280.5C 439.5,274.833 439.5,269.167 439.5,263.5C 426.82,260.321 418.487,252.487 414.5,240C 309.501,239.5 204.501,239.333 99.5,239.5 Z"/></g>
<g><path style="opacity:0.932" fill="#000000" d="M 211.5,254.5 C 219.998,255.17 224.164,259.836 224,268.5C 225.419,269.46 226.919,270.293 228.5,271C 246.5,271.667 264.5,271.667 282.5,271C 284.329,270.727 285.829,269.893 287,268.5C 287.358,261.15 291.025,256.484 298,254.5C 302.833,255.333 305.667,258.167 306.5,263C 305.405,274.855 299.405,283.188 288.5,288C 266.833,289.972 245.166,289.972 223.5,288C 210.626,282.798 204.793,273.298 206,259.5C 207.352,257.251 209.185,255.584 211.5,254.5 Z"/></g>
</svg>
